<svg xmlns="http://www.w3.org/2000/svg" width="50" height="50" viewBox="0 0 50 50"><defs><style>.a{fill:#455a64;}.b{fill:none;}</style></defs><g transform="translate(21725 -3459)"><g transform="translate(-21725.002 3458.999)"><path class="a" d="M21734.227-3433.237a.994.994,0,0,1-.355-1.365,1,1,0,0,1,1.365-.361l8.23,4.812,7.766-4.369-.043-1.136-7.738,4.358-9.176-5.308a.993.993,0,0,1-.365-1.365,1,1,0,0,1,1.365-.366l8.191,4.735,7.641-4.3-.033-.906-7.246,4a.952.952,0,0,1-.482.126.992.992,0,0,1-.5-.131l-8.617-4.937a1,1,0,0,1-.5-.9,1.282,1.282,0,0,1,.023-.175H21716a1,1,0,0,1-1-1c0-.055.088-5.707,7.385-7.067,4.762-.89,4.822-1.933,4.844-2.277a.974.974,0,0,1,.207-.552c.006-.027.018-.055.021-.082l0-1.163a10.45,10.45,0,0,1-2.912-4.588c-1.91-.726-2.354-4-2.354-4.893a4.1,4.1,0,0,1,.891-2.906,2.248,2.248,0,0,1,.754-.5v-1.179c0-6.193,4.482-8.962,8.924-8.962h0c4.441,0,8.924,2.769,8.924,8.962v1.179a2.272,2.272,0,0,1,.76.5,4.059,4.059,0,0,1,.885,2.856c0,.928-.432,4.2-2.3,4.937a10.511,10.511,0,0,1-2.742,4.435v1.971c.027.246.1.83,1.705,1.447a1.06,1.06,0,0,1,.262.1,19.948,19.948,0,0,0,2.877.721,12.659,12.659,0,0,1,3.8,1.292l3.91-1.882a.986.986,0,0,1,.824-.016l8.727,3.7a1.01,1.01,0,0,1,.607.868,1,1,0,0,1-.514.928l-7.936,4.38.033.89,6.93-3.9a1,1,0,0,1,1.359.382,1,1,0,0,1-.381,1.36l-7.826,4.407.037,1.13,6.811-3.828a1,1,0,0,1,1.359.377,1,1,0,0,1-.381,1.365l-17.039,9.59Zm2.648-7.3,6.477,3.708,6.707-3.7-.639-.355c-.787.044-1.414.065-1.912.065-1.8,0-1.9-.251-1.977-.437a.483.483,0,0,1,.174-.563,7.507,7.507,0,0,0,.75-.7l-.105-.06-1.955.846a.388.388,0,0,1-.158.033.4.4,0,0,1-.365-.246.4.4,0,0,1,.207-.524l1.383-.6-.078-.044c-.141.011-.283.033-.42.055a.392.392,0,0,1-.18-.011l-1.541.661a.509.509,0,0,1-.152.033.4.4,0,0,1-.371-.246.4.4,0,0,1,.213-.524l1.344-.579-.371-.2Zm14.564-1.294a.406.406,0,0,1,.395.317l5.887-3.25-6.422-2.72-5.734,2.763.463.251,1.039-.442a.406.406,0,0,1,.523.213.4.4,0,0,1-.213.524l-.459.2.285.158,1.3-.557a.4.4,0,0,1,.525.208.4.4,0,0,1-.209.524l-.727.317,2.8,1.54c.174-.016.344-.027.514-.044Zm-4.729.191c.344.016.809.011,1.338,0l-.879-.486A5.356,5.356,0,0,1,21746.711-3441.636Zm-15.488-1.191h3.527l-.42-.819a.457.457,0,0,1-.043-.093l-1.3-2.529Zm-8.471-4.1c-3.9.726-5.156,2.829-5.561,4.1h11.787l.566-1.109-3.609-3.8A21.609,21.609,0,0,1,21722.752-3446.928Zm13.67,2.976.486.95,7.285-3.577a10.139,10.139,0,0,0-1.41-.344,23.4,23.4,0,0,1-2.746-.65Zm-8.6-4.7,2.691,2.829,1.17-2.283-2.857-1.589A3.479,3.479,0,0,1,21727.82-3448.649Zm6.5.606,1.137,2.217,2.594-2.594a3.9,3.9,0,0,1-1.268-1.147Zm-1.934-19.874a10.562,10.562,0,0,1-6.559,2.731v.136a1,1,0,0,1-1,1c-.229,0-.295.071-.332.109-.143.142-.312.508-.312,1.442.006.9.553,3.086,1.152,3.086a1.006,1.006,0,0,1,.973.759,8.466,8.466,0,0,0,2.688,4.385.858.858,0,0,1,.186.153,8.016,8.016,0,0,0,.775.563,1,1,0,0,1,.295,1.382,1,1,0,0,1-.8.459v.076l3.615,2.021,3.217-2v-.109a.987.987,0,0,1-.973-.448,1,1,0,0,1,.3-1.382,8.511,8.511,0,0,0,3.648-5.1,1,1,0,0,1,.967-.759c.541,0,1.1-2.108,1.1-3.037a2.319,2.319,0,0,0-.3-1.491c-.033-.033-.1-.109-.344-.109a1,1,0,0,1-1-1v-1.655c-.012-.475-.219-2.873-3.533-2.873A5.5,5.5,0,0,0,21732.391-3467.917Zm-6.559.726a8.637,8.637,0,0,0,5.309-2.288,7.379,7.379,0,0,1,5.014-2.1,6.858,6.858,0,0,1,2.42.4,6.846,6.846,0,0,0-5.812-2.829h0C21729.6-3474,21725.908-3472.215,21725.832-3467.19Z" transform="translate(-21713 3477)"/></g><rect class="b" width="50" height="50" transform="translate(-21725 3459)"/></g></svg>