<svg xmlns="http://www.w3.org/2000/svg" width="50" height="50" viewBox="0 0 50 50"><defs><style>.a{fill:#cf9841;stroke:#fff;}.b{fill:none;}</style></defs><g transform="translate(-250 -4144)"><g transform="translate(0 -3)"><path class="a" d="M13.732-28.5H10.089v-3.859a.9.9,0,0,0-.911-.891H6.143a.9.9,0,0,0-.911.891V-28.5H-4.482v-3.859a.9.9,0,0,0-.911-.891H-8.429a.9.9,0,0,0-.911.891V-28.5h-3.643a3.6,3.6,0,0,0-3.643,3.563V1.188A3.6,3.6,0,0,0-12.982,4.75H13.732a3.6,3.6,0,0,0,3.643-3.562V-24.937A3.6,3.6,0,0,0,13.732-28.5ZM13.277,1.188h-25.8a.451.451,0,0,1-.455-.445V-21.375H13.732V.742A.451.451,0,0,1,13.277,1.188Z" transform="translate(274.625 4186.25)"/><path class="a" d="M12.43,17.172,8.681,13.486,6.29,15.843l6.14,6.027L24.29,10.227,21.9,7.87Z" transform="translate(259.71 4161.13)"/></g><rect class="b" width="50" height="50" transform="translate(250 4144)"/></g></svg>