<svg xmlns="http://www.w3.org/2000/svg" width="50" height="50" viewBox="0 0 50 50"><defs><style>.a{fill:none;}.b{fill:#cf9841;}</style></defs><g transform="translate(20750 -2676)"><rect class="a" width="50" height="50" transform="translate(-20750 2676)"/><g transform="translate(-20750 2676)"><path class="b" d="M21115-3217v-3.6a6.118,6.118,0,0,0-6.014-6.217H21095a6.116,6.116,0,0,0-6,6.2v3.614a1,1,0,0,1-1,1,1,1,0,0,1-1-1v-3.6a8.118,8.118,0,0,1,7.982-8.209H21109a8.063,8.063,0,0,1,5.713,2.459,8.056,8.056,0,0,1,2.289,5.771V-3217a1,1,0,0,1-1,1A1,1,0,0,1,21115-3217Zm-21.2-24.792a8.215,8.215,0,0,1,8.2-8.209h.006a8.226,8.226,0,0,1,8.209,8.209,8.219,8.219,0,0,1-8.209,8.209A8.216,8.216,0,0,1,21093.795-3241.792Zm2,0a6.216,6.216,0,0,0,6.211,6.211,6.214,6.214,0,0,0,6.205-6.211A6.214,6.214,0,0,0,21102-3248H21102A6.21,6.21,0,0,0,21095.793-3241.792Z" transform="translate(-21077 3258)"/></g></g></svg>