<svg xmlns="http://www.w3.org/2000/svg" width="50" height="50" viewBox="0 0 50 50"><defs><style>.a,.b{fill:#cf9841;}.a{stroke:#fff;}.c{fill:none;}</style></defs><g transform="translate(-250 -4154)"><g transform="translate(-207.75 1528.257)"><path class="a" d="M12.722-25.985,6.6-32.211a3.47,3.47,0,0,0-2.472-1.046H-10.75a3.543,3.543,0,0,0-3.5,3.569V1.181a3.532,3.532,0,0,0,3.5,3.562h21a3.532,3.532,0,0,0,3.5-3.562V-23.462A3.611,3.611,0,0,0,12.722-25.985ZM9.966-23.752H4.417V-29.4ZM-10.75,1.181V-29.688H.917v7.717a1.761,1.761,0,0,0,1.75,1.781H10.25V1.181Z" transform="translate(483 2665)"/><path class="b" d="M-6.872-7.967a.685.685,0,0,0,.943-.01l3.155-3.116V-.247a.639.639,0,0,0,.66.621h.88a.639.639,0,0,0,.66-.621V-11.093L2.577-7.979a.69.69,0,0,0,.943.01l.61-.574a.593.593,0,0,0,0-.877l-5.34-5.025a.686.686,0,0,0-.932,0l-5.34,5.027a.593.593,0,0,0,0,.877Z" transform="translate(484.426 2662.622)"/></g><rect class="c" width="50" height="50" transform="translate(250 4154)"/></g></svg>