<svg xmlns="http://www.w3.org/2000/svg" width="50" height="50" viewBox="0 0 50 50"><defs><style>.a,.b,.c{fill:none;}.b,.c{stroke:#cf9841;stroke-linecap:round;stroke-linejoin:round;}.b{stroke-width:2px;}.d{stroke:none;}</style></defs><g transform="translate(-250 -4153)"><rect class="a" width="50" height="50" transform="translate(250 4153)"/><g transform="translate(-181 3914)"><g class="b" transform="translate(432 250)"><rect class="d" width="48" height="28" rx="2"/><rect class="a" x="1" y="1" width="46" height="26" rx="1"/></g><path class="c" d="M10,20h4v1H10Z" transform="translate(429 237)"/><path class="c" d="M10,20h4v1H10Z" transform="translate(439 237)"/><path class="c" d="M10,20h4v1H10Z" transform="translate(449 237)"/><path class="c" d="M10,20h4v1H10Z" transform="translate(459 237)"/><path class="c" d="M10,20h4v1H10Z" transform="translate(429 244)"/><path class="c" d="M10,20h4v1H10Z" transform="translate(439 244)"/><path class="c" d="M10,20h4v1H10Z" transform="translate(449 244)"/><path class="c" d="M10,20h4v1H10Z" transform="translate(459 244)"/><path class="c" d="M10,20H24v1H10Z" transform="translate(439 250.746)"/></g></g></svg>