<svg xmlns="http://www.w3.org/2000/svg" width="50" height="50" viewBox="0 0 50 50"><defs><style>.a{fill:#455a64;}.b{fill:none;}</style></defs><path class="a" d="M21634-3493a11.012,11.012,0,0,1,11-11,11.013,11.013,0,0,1,11,11,11.013,11.013,0,0,1-11,11A11.012,11.012,0,0,1,21634-3493Zm2,0a9.011,9.011,0,0,0,9,9,9.012,9.012,0,0,0,9-9,9.012,9.012,0,0,0-9-9A9.011,9.011,0,0,0,21636-3493Zm5.428,3.093-1.336-1.4,1.918-.277a4.187,4.187,0,0,0,2.262-.913h-3.326v-2h3.842a2.246,2.246,0,0,0-.973-1.5H21641v-2h8v2h-2.646a5.069,5.069,0,0,1,.461,1.5h2.3v2h-2.516a4.208,4.208,0,0,1-2.549,2.446c1.2,1.245,2.467,2.571,2.652,2.734l-1.338,1.495C21645.029-3486.129,21642.029-3489.276,21641.43-3489.906Zm-29.049,3.136a4.453,4.453,0,0,1-4.381-4.321v-10.462h15.506v3.745a.14.14,0,0,0,.119.114h9.475l-.316,1.239a21.641,21.641,0,0,0-.564,3.141,10.909,10.909,0,0,0,.979,5.125l.646,1.418Zm-2.381-4.348a2.444,2.444,0,0,0,2.4,2.348h18.43a13.136,13.136,0,0,1-.607-4.631,16.522,16.522,0,0,1,.342-2.293h-6.93a2.261,2.261,0,0,1-1.494-.614,2.117,2.117,0,0,1-.631-1.495v-1.75H21610Zm-2-11.87v-5.973a4.454,4.454,0,0,1,4.359-4.348h4.646v-2.343a4.45,4.45,0,0,1,4.359-4.348h11.277a4.447,4.447,0,0,1,4.375,4.315v2.375h4.631a4.445,4.445,0,0,1,4.375,4.321v3.918l-1.088-.1c-.342-.027-.684-.049-1.037-.049a11.337,11.337,0,0,0-6.521,2.049l-.256.179Zm2-5.946v3.946h26.5a13.364,13.364,0,0,1,7.4-2.228.484.484,0,0,1,.125,0v-1.745a2.436,2.436,0,0,0-2.4-2.348h-6.609v-4.343a2.44,2.44,0,0,0-2.4-2.348h-11.234a2.441,2.441,0,0,0-2.381,2.375v4.315h-6.631A2.445,2.445,0,0,0,21610-3508.934Zm11.506-2.375v-2.429h11.012v2.429Z" transform="translate(-21607 3526)"/><rect class="b" width="50" height="50"/></svg>