<svg id="Layer_1" data-name="Layer 1" xmlns="http://www.w3.org/2000/svg" viewBox="0 0 909.57 165.98"><defs><style>.cls-1{fill:#0c9afc;}.cls-2{fill:#0c293d;}</style></defs><title>LeadSquared-logo</title><polygon class="cls-1" points="0 0 0 68.45 68.59 68.45 68.59 137.86 136.59 137.86 136.59 0 0 0"/><path class="cls-2" d="M158.05,42c-5.49,0-5.49-8.64,0-8.64h9.87a3.36,3.36,0,0,1,3.43,3.29v92.58h3.84c5.49,0,5.49,8.64,0,8.64H158.73c-5.48,0-5.48-8.64,0-8.64h3.84V42Z"/><path class="cls-2" d="M219.09,138.55c-21.26,0-36.76-16.32-36.76-36.49,0-19.75,15.5-36.89,35.11-36.89,19.34,0,31.82,16.32,32.37,36.21,0,2.47-1.23,5.21-4.25,5.21H191c2.19,13.85,14,23.32,28,23.32,4.94,0,12.34-1.24,16.73-3.43,3.29-1.65,5.21-.28,6,1.23a4.37,4.37,0,0,1-1.92,5.9C234.31,136.76,225.26,138.55,219.09,138.55ZM191,98h49.92c-2.19-13.58-10.15-24.14-23.59-24.14S193,84.92,191,98Z"/><path class="cls-2" d="M317,137.86a3.34,3.34,0,0,1-3.29-3.29v-8.78c-5.9,8.23-15.23,12.76-25.79,12.76-20.3,0-35.8-16.46-35.8-36.49,0-19.75,15.37-36.21,35-36.21,19.2,0,26.61,14.27,26.61,14.27V69.28A3.37,3.37,0,0,1,317,65.85h7.27c5.49,0,5.49,8.64,0,8.64h-1.92v54.73h1.92c5.49,0,5.49,8.64,0,8.64ZM287.39,74.49c-14.95,0-26.74,12.49-26.74,27.44,0,14.67,10.15,28,26.88,28,8.92.13,26.88-6.86,26.88-27.57C314.41,87.8,303.17,74.49,287.39,74.49Z"/><path class="cls-2" d="M397.67,137.86a3.34,3.34,0,0,1-3.29-3.29v-8.78c-5.9,8.23-15.22,12.76-25.79,12.76-20.3,0-35.79-16.46-35.79-36.49,0-19.75,15.36-36.21,35-36.21,19.2,0,26.61,14.27,26.61,14.27V41.85h-1.92c-5.49,0-5.49-8.5,0-8.5h7.27A3.36,3.36,0,0,1,403,36.77v92.45h1.92c5.49,0,5.49,8.64,0,8.64Zm-29.62-63.5c-14.95,0-26.48,12.62-26.75,27.57-.27,14.67,10.15,28,26.88,28,8.92.13,26.2-6.86,26.2-27.57C394.38,87.8,383.82,74.36,368.05,74.36Z"/><path class="cls-1" d="M461.59,65.3c2.06,0,4.25,1.1,4.25,3.84V85.33a4,4,0,0,1-4.11,3.7,4,4,0,0,1-4.25-4c0-8.23-7.68-12.21-15.5-12.21-6.86,0-15.5,3.84-15.5,11.52,0,6.86,6.72,10.29,19.34,13.3,11.24,2.75,22.49,5.63,22.49,19.21,0,13.3-12.89,21-24.69,21-6.86,0-14.26-2.74-18.24-7.27V134c0,2.74-2.19,3.84-4.25,3.84S417,136.76,417,134V116.88a4.53,4.53,0,0,1,9.06.27c0,9.47,9.19,12.89,17.42,12.76,7.13,0,16.32-4.8,16.32-13s-9.19-9.74-15.91-11.25c-17.7-3.84-25.65-10.15-25.65-21.26,0-12.48,11.79-19.2,22.77-19.2,7,0,13.16,3,16.46,7.13V69.14C457.48,66.4,459.53,65.3,461.59,65.3Z"/><path class="cls-1" d="M547.18,65.85c5.49,0,5.49,8.64,0,8.64h-1.92v83h1.92c5.49,0,5.49,8.5,0,8.5h-7.27a3.37,3.37,0,0,1-3.29-3.43v-39s-7.41,14.26-26.61,14.26c-19.61,0-35-16.46-35-36.21,0-20,15.5-36.48,35.8-36.48a31.73,31.73,0,0,1,25.79,13.58V69.14a3.34,3.34,0,0,1,3.29-3.29Zm-36.76,8c-16.73,0-27.16,13.3-26.88,28,.27,14.95,11.79,27.57,26.74,27.57,15.78,0,26.34-13.44,26.34-28C536.62,80.67,519.34,73.67,510.42,73.81Z"/><path class="cls-1" d="M614.53,74.49c-5.49,0-5.49-8.64,0-8.64h8.09a3.37,3.37,0,0,1,3.43,3.29v59.94h3.29c5.49,0,5.49,8.78,0,8.78h-8.5a3.4,3.4,0,0,1-3.43-3.43v-7.68c-5.49,8-15.09,11.11-24.28,11.11-20.57,0-30.72-13.44-30.72-31.41v-32h-2.88c-5.49,0-5.49-8.64,0-8.64h8.09a3.37,3.37,0,0,1,3.43,3.29v37.31c0,13.17,7,22.77,22.08,22.77,13.58,0,24.28-7.68,24.28-24.41V74.49Z"/><path class="cls-1" d="M703.41,137.86a3.34,3.34,0,0,1-3.29-3.29v-8.78c-5.9,8.23-15.23,12.76-25.79,12.76-20.3,0-35.8-16.46-35.8-36.49,0-19.75,15.37-36.21,35-36.21,19.2,0,26.61,14.27,26.61,14.27V69.28a3.37,3.37,0,0,1,3.29-3.43h7.27c5.49,0,5.49,8.64,0,8.64h-1.92v54.73h1.92c5.49,0,5.49,8.64,0,8.64ZM673.78,74.49C658.83,74.49,647,87,647,101.93c0,14.67,10.15,28,26.88,28,8.92.13,26.89-6.86,26.89-27.57C700.81,87.8,689.56,74.49,673.78,74.49Z"/><path class="cls-1" d="M735.92,134.57a3.34,3.34,0,0,1-3.29,3.29H725.5c-5.63,0-5.63-8.64,0-8.64h1.78V74.36H725.5c-5.63,0-5.63-8.51,0-8.51h7.13a3.37,3.37,0,0,1,3.29,3.43v8.78c6.31-9.33,15.09-12.21,25.51-12.21A4,4,0,0,1,766,70c0,4.39-4.53,4.39-4.53,4.39H761c-11.11,0-25.1,6.17-25.1,21.39Z"/><path class="cls-1" d="M800.25,138.55c-21.26,0-36.76-16.32-36.76-36.49,0-19.75,15.5-36.89,35.11-36.89,19.34,0,31.83,16.32,32.38,36.21,0,2.47-1.24,5.21-4.26,5.21H772.13c2.2,13.85,14,23.32,28,23.32,4.94,0,12.35-1.24,16.74-3.43,3.29-1.65,5.21-.28,6,1.23a4.37,4.37,0,0,1-1.92,5.9C815.48,136.76,806.42,138.55,800.25,138.55ZM772.13,98h49.93c-2.2-13.58-10.15-24.14-23.59-24.14S774.19,84.92,772.13,98Z"/><path class="cls-1" d="M898.18,137.86a3.34,3.34,0,0,1-3.29-3.29v-8.78c-5.89,8.23-15.22,12.76-25.78,12.76-20.3,0-35.8-16.46-35.8-36.49,0-19.75,15.36-36.21,35-36.21,19.21,0,26.61,14.27,26.61,14.27V41.85H893c-5.48,0-5.48-8.5,0-8.5h7.27a3.35,3.35,0,0,1,3.29,3.42v92.45h1.92c5.49,0,5.49,8.64,0,8.64Zm-29.62-63.5c-14.95,0-26.47,12.62-26.75,27.57-.27,14.67,10.15,28,26.89,28,8.91.13,26.19-6.86,26.19-27.57C894.89,87.8,884.33,74.36,868.56,74.36Z"/><polygon class="cls-2" points="68.59 137.86 0 137.86 0 68.45 68.59 137.86"/></svg>