<svg xmlns="http://www.w3.org/2000/svg" width="50" height="50" viewBox="0 0 50 50"><defs><style>.a{fill:none;}.b{fill:#cf9841;stroke:#fff;}</style></defs><g transform="translate(5 5)"><rect class="a" width="50" height="50" transform="translate(-5 -5)"/><g transform="translate(1.672 2.508)"><path class="b" d="M37.783,19.039,33.7,14.374l.568-6.17L28.236,6.834,25.076,1.5,19.392,3.941,13.707,1.5l-3.16,5.334L4.511,8.188l.568,6.186L1,19.039,5.08,23.7,4.511,29.89l6.036,1.371,3.16,5.35,5.685-2.458,5.685,2.441,3.16-5.334,6.036-1.371-.568-6.17Zm-6.6,2.475L30.243,22.6l.134,1.421.3,3.26L27.5,28l-1.4.318-.736,1.237-1.655,2.809-2.976-1.287-1.338-.568-1.321.568-2.976,1.287L13.44,29.572,12.7,28.335l-1.4-.318L8.123,27.3l.3-3.277L8.557,22.6l-.936-1.087L5.464,19.056l2.157-2.475.936-1.087-.15-1.438-.3-3.244,3.177-.719,1.4-.318.736-1.237L15.078,5.73l2.976,1.287,1.338.568,1.321-.568L23.689,5.73l1.655,2.809.736,1.237,1.4.318,3.177.719-.3,3.26-.134,1.421.936,1.087,2.157,2.458Z" transform="translate(-1 -1.5)"/><path class="b" d="M12.644,17.7l-3.879-3.9L6.29,16.3l6.354,6.37L24.916,10.361,22.441,7.87Z" transform="translate(2.555 2.78)"/></g></g></svg>